<mxfile host="app.diagrams.net" modified="2021-03-15T12:41:46.276Z" agent="5.0 (Windows NT 10.0; Win64; x64) AppleWebKit/537.36 (KHTML, like Gecko) Chrome/88.0.4324.182 Safari/537.36" etag="k6kXtUk8ezLVpcOzZ5jX" version="13.7.2" type="github" pages="2">
  <diagram name="Current Process" id="ff44883e-f642-bcb2-894b-16b3d25a3f0b">
    <mxGraphModel dx="1994" dy="1096" grid="1" gridSize="10" guides="1" tooltips="1" connect="1" arrows="1" fold="1" page="1" pageScale="1.5" pageWidth="1169" pageHeight="826" background="#ffffff" math="0" shadow="0">
      <root>
        <mxCell id="0" style=";html=1;" />
        <mxCell id="1" style=";html=1;" parent="0" />
        <mxCell id="v5tUWEUiO7Ri3l-r8bOF-5" style="edgeStyle=orthogonalEdgeStyle;rounded=1;orthogonalLoop=1;jettySize=auto;html=1;exitX=1;exitY=0.5;exitDx=0;exitDy=0;startArrow=none;startFill=0;endArrow=classic;endFill=1;strokeColor=#330000;" edge="1" parent="1" source="f0bcc99304e6f5a-5">
          <mxGeometry relative="1" as="geometry">
            <mxPoint x="1650" y="205" as="targetPoint" />
          </mxGeometry>
        </mxCell>
        <mxCell id="f0bcc99304e6f5a-5" value="&lt;font style=&quot;font-size: 20px&quot;&gt;8.13.4.22&lt;/font&gt;" style="ellipse;whiteSpace=wrap;html=1;rounded=0;shadow=1;strokeColor=#666666;strokeWidth=1;fontSize=30;align=center;fillColor=#f5f5f5;autosize=0;" parent="1" vertex="1">
          <mxGeometry x="40" y="160" width="90" height="90" as="geometry" />
        </mxCell>
        <mxCell id="DOeoYo6PBVCfEFxhY4gJ-6" value="&lt;font style=&quot;font-size: 20px&quot;&gt;8.13.4.23&lt;/font&gt;" style="ellipse;whiteSpace=wrap;html=1;rounded=0;shadow=1;strokeColor=#666666;strokeWidth=1;fontSize=30;align=center;fillColor=#f5f5f5;autosize=0;" vertex="1" parent="1">
          <mxGeometry x="200" y="160" width="90" height="90" as="geometry" />
        </mxCell>
        <mxCell id="DOeoYo6PBVCfEFxhY4gJ-7" value="&lt;font style=&quot;font-size: 20px&quot;&gt;8.13.4.24&lt;/font&gt;" style="ellipse;whiteSpace=wrap;html=1;rounded=0;shadow=1;strokeColor=#666666;strokeWidth=1;fontSize=30;align=center;fillColor=#f5f5f5;autosize=0;" vertex="1" parent="1">
          <mxGeometry x="360" y="160" width="90" height="90" as="geometry" />
        </mxCell>
        <mxCell id="DOeoYo6PBVCfEFxhY4gJ-8" value="&lt;font style=&quot;font-size: 20px&quot;&gt;8.13.4.25&lt;/font&gt;" style="ellipse;whiteSpace=wrap;html=1;rounded=0;shadow=1;strokeColor=#666666;strokeWidth=1;fontSize=30;align=center;fillColor=#f5f5f5;autosize=0;" vertex="1" parent="1">
          <mxGeometry x="520" y="160" width="90" height="90" as="geometry" />
        </mxCell>
        <mxCell id="DOeoYo6PBVCfEFxhY4gJ-9" value="&lt;font style=&quot;font-size: 20px&quot;&gt;8.13.4.26&lt;/font&gt;" style="ellipse;whiteSpace=wrap;html=1;rounded=0;shadow=1;strokeColor=#666666;strokeWidth=1;fontSize=30;align=center;fillColor=#f5f5f5;autosize=0;" vertex="1" parent="1">
          <mxGeometry x="680" y="160" width="90" height="90" as="geometry" />
        </mxCell>
        <mxCell id="DOeoYo6PBVCfEFxhY4gJ-10" value="&lt;font style=&quot;font-size: 20px&quot;&gt;8.13.4.27&lt;/font&gt;" style="ellipse;whiteSpace=wrap;html=1;rounded=0;shadow=1;strokeColor=#666666;strokeWidth=1;fontSize=30;align=center;fillColor=#f5f5f5;autosize=0;" vertex="1" parent="1">
          <mxGeometry x="840" y="160" width="90" height="90" as="geometry" />
        </mxCell>
        <mxCell id="DOeoYo6PBVCfEFxhY4gJ-25" value="&lt;font style=&quot;font-size: 20px&quot;&gt;8.13.4.28&lt;/font&gt;" style="ellipse;whiteSpace=wrap;html=1;rounded=0;shadow=1;strokeColor=#666666;strokeWidth=1;fontSize=30;align=center;fillColor=#f5f5f5;autosize=0;" vertex="1" parent="1">
          <mxGeometry x="1000" y="160" width="90" height="90" as="geometry" />
        </mxCell>
        <mxCell id="DOeoYo6PBVCfEFxhY4gJ-26" value="&lt;font style=&quot;font-size: 20px&quot;&gt;8.13.4.29&lt;/font&gt;" style="ellipse;whiteSpace=wrap;html=1;rounded=0;shadow=1;strokeColor=#666666;strokeWidth=1;fontSize=30;align=center;fillColor=#f5f5f5;autosize=0;" vertex="1" parent="1">
          <mxGeometry x="1160" y="160" width="90" height="90" as="geometry" />
        </mxCell>
        <mxCell id="DOeoYo6PBVCfEFxhY4gJ-27" value="&lt;font style=&quot;font-size: 20px&quot;&gt;8.13.4.30&lt;/font&gt;" style="ellipse;whiteSpace=wrap;html=1;rounded=0;shadow=1;strokeColor=#666666;strokeWidth=1;fontSize=30;align=center;fillColor=#f5f5f5;autosize=0;" vertex="1" parent="1">
          <mxGeometry x="1320" y="160" width="90" height="90" as="geometry" />
        </mxCell>
        <mxCell id="DOeoYo6PBVCfEFxhY4gJ-28" value="&lt;font style=&quot;font-size: 20px&quot;&gt;8.13.4.31&lt;/font&gt;" style="ellipse;whiteSpace=wrap;html=1;rounded=0;shadow=1;strokeColor=#666666;strokeWidth=1;fontSize=30;align=center;fillColor=#f5f5f5;autosize=0;" vertex="1" parent="1">
          <mxGeometry x="1480" y="160" width="90" height="90" as="geometry" />
        </mxCell>
        <mxCell id="DOeoYo6PBVCfEFxhY4gJ-35" value="&lt;font style=&quot;font-size: 20px&quot;&gt;8.14.0.1&lt;/font&gt;" style="ellipse;whiteSpace=wrap;html=1;rounded=0;shadow=1;strokeColor=#666666;strokeWidth=1;fontSize=30;align=center;fillColor=#f5f5f5;autosize=0;" vertex="1" parent="1">
          <mxGeometry x="42" y="461" width="90" height="90" as="geometry" />
        </mxCell>
        <mxCell id="DOeoYo6PBVCfEFxhY4gJ-36" value="&lt;font style=&quot;font-size: 20px&quot;&gt;8.14.0.2&lt;/font&gt;" style="ellipse;whiteSpace=wrap;html=1;rounded=0;shadow=1;strokeColor=#666666;strokeWidth=1;fontSize=30;align=center;fillColor=#f5f5f5;autosize=0;" vertex="1" parent="1">
          <mxGeometry x="202" y="461" width="90" height="90" as="geometry" />
        </mxCell>
        <mxCell id="DOeoYo6PBVCfEFxhY4gJ-37" value="&lt;font style=&quot;font-size: 20px&quot;&gt;8.14.0.3&lt;/font&gt;" style="ellipse;whiteSpace=wrap;html=1;rounded=0;shadow=1;strokeColor=#666666;strokeWidth=1;fontSize=30;align=center;fillColor=#f5f5f5;autosize=0;" vertex="1" parent="1">
          <mxGeometry x="362" y="461" width="90" height="90" as="geometry" />
        </mxCell>
        <mxCell id="DOeoYo6PBVCfEFxhY4gJ-38" value="&lt;font style=&quot;font-size: 20px&quot;&gt;8.14.0.4&lt;/font&gt;" style="ellipse;whiteSpace=wrap;html=1;rounded=0;shadow=1;strokeColor=#666666;strokeWidth=1;fontSize=30;align=center;fillColor=#f5f5f5;autosize=0;" vertex="1" parent="1">
          <mxGeometry x="522" y="461" width="90" height="90" as="geometry" />
        </mxCell>
        <mxCell id="DOeoYo6PBVCfEFxhY4gJ-39" value="&lt;font style=&quot;font-size: 20px&quot;&gt;8.14.0.5&lt;/font&gt;" style="ellipse;whiteSpace=wrap;html=1;rounded=0;shadow=1;strokeColor=#666666;strokeWidth=1;fontSize=30;align=center;fillColor=#f5f5f5;autosize=0;" vertex="1" parent="1">
          <mxGeometry x="682" y="461" width="90" height="90" as="geometry" />
        </mxCell>
        <mxCell id="DOeoYo6PBVCfEFxhY4gJ-40" value="&lt;font style=&quot;font-size: 20px&quot;&gt;8.14.0.6&lt;/font&gt;" style="ellipse;whiteSpace=wrap;html=1;rounded=0;shadow=1;strokeColor=#666666;strokeWidth=1;fontSize=30;align=center;fillColor=#f5f5f5;autosize=0;" vertex="1" parent="1">
          <mxGeometry x="842" y="461" width="90" height="90" as="geometry" />
        </mxCell>
        <mxCell id="DOeoYo6PBVCfEFxhY4gJ-46" value="&lt;font style=&quot;font-size: 20px&quot;&gt;8.14.0.7&lt;/font&gt;" style="ellipse;whiteSpace=wrap;html=1;rounded=0;shadow=1;strokeColor=#666666;strokeWidth=1;fontSize=30;align=center;fillColor=#f5f5f5;autosize=0;" vertex="1" parent="1">
          <mxGeometry x="1002" y="461" width="90" height="90" as="geometry" />
        </mxCell>
        <mxCell id="DOeoYo6PBVCfEFxhY4gJ-54" value="&lt;font style=&quot;font-size: 20px&quot;&gt;8.15.0&lt;/font&gt;" style="ellipse;whiteSpace=wrap;html=1;rounded=0;shadow=1;strokeColor=#666666;strokeWidth=1;fontSize=30;align=center;fillColor=#f5f5f5;autosize=0;" vertex="1" parent="1">
          <mxGeometry x="42" y="720" width="90" height="90" as="geometry" />
        </mxCell>
        <mxCell id="DOeoYo6PBVCfEFxhY4gJ-67" value="" style="endArrow=classic;html=1;exitX=0.5;exitY=1;exitDx=0;exitDy=0;strokeColor=#FFFF00;" edge="1" parent="1" source="DOeoYo6PBVCfEFxhY4gJ-28" target="DOeoYo6PBVCfEFxhY4gJ-46">
          <mxGeometry width="50" height="50" relative="1" as="geometry">
            <mxPoint x="840" y="540" as="sourcePoint" />
            <mxPoint x="890" y="490" as="targetPoint" />
          </mxGeometry>
        </mxCell>
        <mxCell id="DOeoYo6PBVCfEFxhY4gJ-68" value="" style="endArrow=classic;html=1;exitX=0.5;exitY=0;exitDx=0;exitDy=0;entryX=0.5;entryY=1;entryDx=0;entryDy=0;strokeColor=#3333FF;" edge="1" parent="1" source="DOeoYo6PBVCfEFxhY4gJ-54" target="DOeoYo6PBVCfEFxhY4gJ-28">
          <mxGeometry width="50" height="50" relative="1" as="geometry">
            <mxPoint x="840" y="540" as="sourcePoint" />
            <mxPoint x="890" y="490" as="targetPoint" />
          </mxGeometry>
        </mxCell>
        <mxCell id="DOeoYo6PBVCfEFxhY4gJ-69" value="" style="endArrow=classic;html=1;entryX=0.5;entryY=1;entryDx=0;entryDy=0;strokeColor=#3333FF;" edge="1" parent="1" target="DOeoYo6PBVCfEFxhY4gJ-46">
          <mxGeometry width="50" height="50" relative="1" as="geometry">
            <mxPoint x="90" y="730" as="sourcePoint" />
            <mxPoint x="890" y="490" as="targetPoint" />
            <Array as="points">
              <mxPoint x="120" y="720" />
            </Array>
          </mxGeometry>
        </mxCell>
        <mxCell id="DOeoYo6PBVCfEFxhY4gJ-70" value="&lt;font style=&quot;font-size: 30px&quot;&gt;Immediate&lt;/font&gt;" style="text;html=1;strokeColor=none;fillColor=none;align=center;verticalAlign=middle;whiteSpace=wrap;rounded=0;rotation=-20;" vertex="1" parent="1">
          <mxGeometry x="772" y="410" width="292" height="20" as="geometry" />
        </mxCell>
        <mxCell id="DOeoYo6PBVCfEFxhY4gJ-72" value="&lt;font style=&quot;font-size: 30px&quot;&gt;Immediate&lt;/font&gt;" style="text;html=1;strokeColor=none;fillColor=none;align=center;verticalAlign=middle;whiteSpace=wrap;rounded=0;rotation=-15;" vertex="1" parent="1">
          <mxGeometry x="370" y="620" width="292" height="20" as="geometry" />
        </mxCell>
        <mxCell id="DOeoYo6PBVCfEFxhY4gJ-73" value="&lt;font style=&quot;font-size: 30px&quot;&gt;Weekly&lt;/font&gt;" style="text;html=1;strokeColor=none;fillColor=none;align=center;verticalAlign=middle;whiteSpace=wrap;rounded=0;rotation=-30;" vertex="1" parent="1">
          <mxGeometry x="1064" y="380" width="292" height="20" as="geometry" />
        </mxCell>
        <mxCell id="v5tUWEUiO7Ri3l-r8bOF-7" value="" style="endArrow=none;html=1;strokeColor=#330000;entryX=1;entryY=0.5;entryDx=0;entryDy=0;startArrow=classic;startFill=1;endFill=0;" edge="1" parent="1" target="DOeoYo6PBVCfEFxhY4gJ-35">
          <mxGeometry width="50" height="50" relative="1" as="geometry">
            <mxPoint x="1220" y="506" as="sourcePoint" />
            <mxPoint x="890" y="460" as="targetPoint" />
          </mxGeometry>
        </mxCell>
      </root>
    </mxGraphModel>
  </diagram>
  <diagram id="LYA4Sbxh-fIAMtp_Nz5c" name="New Process">
    <mxGraphModel dx="1994" dy="1096" grid="1" gridSize="10" guides="1" tooltips="1" connect="1" arrows="1" fold="1" page="1" pageScale="1" pageWidth="850" pageHeight="1100" math="0" shadow="0">
      <root>
        <mxCell id="ulIZNQ3s84KXibX1xzsV-0" />
        <mxCell id="ulIZNQ3s84KXibX1xzsV-1" parent="ulIZNQ3s84KXibX1xzsV-0" />
        <mxCell id="LUADUytyQtnepU-gGxAM-0" value="&lt;font style=&quot;font-size: 20px&quot;&gt;8.13.4.22&lt;/font&gt;" style="ellipse;whiteSpace=wrap;html=1;rounded=0;shadow=1;strokeColor=#666666;strokeWidth=1;fontSize=30;align=center;fillColor=#f5f5f5;autosize=0;" vertex="1" parent="ulIZNQ3s84KXibX1xzsV-1">
          <mxGeometry x="50" y="170" width="90" height="90" as="geometry" />
        </mxCell>
        <mxCell id="LUADUytyQtnepU-gGxAM-1" value="&lt;font style=&quot;font-size: 20px&quot;&gt;8.13.4.23&lt;/font&gt;" style="ellipse;whiteSpace=wrap;html=1;rounded=0;shadow=1;strokeColor=#666666;strokeWidth=1;fontSize=30;align=center;fillColor=#f5f5f5;autosize=0;" vertex="1" parent="ulIZNQ3s84KXibX1xzsV-1">
          <mxGeometry x="210" y="170" width="90" height="90" as="geometry" />
        </mxCell>
        <mxCell id="LUADUytyQtnepU-gGxAM-2" value="&lt;font style=&quot;font-size: 20px&quot;&gt;8.13.4.24&lt;/font&gt;" style="ellipse;whiteSpace=wrap;html=1;rounded=0;shadow=1;strokeColor=#666666;strokeWidth=1;fontSize=30;align=center;fillColor=#f5f5f5;autosize=0;" vertex="1" parent="ulIZNQ3s84KXibX1xzsV-1">
          <mxGeometry x="370" y="170" width="90" height="90" as="geometry" />
        </mxCell>
        <mxCell id="LUADUytyQtnepU-gGxAM-3" value="&lt;font style=&quot;font-size: 20px&quot;&gt;8.13.4.25&lt;/font&gt;" style="ellipse;whiteSpace=wrap;html=1;rounded=0;shadow=1;strokeColor=#666666;strokeWidth=1;fontSize=30;align=center;fillColor=#f5f5f5;autosize=0;" vertex="1" parent="ulIZNQ3s84KXibX1xzsV-1">
          <mxGeometry x="530" y="170" width="90" height="90" as="geometry" />
        </mxCell>
        <mxCell id="LUADUytyQtnepU-gGxAM-4" value="&lt;font style=&quot;font-size: 20px&quot;&gt;8.13.4.26&lt;/font&gt;" style="ellipse;whiteSpace=wrap;html=1;rounded=0;shadow=1;strokeColor=#666666;strokeWidth=1;fontSize=30;align=center;fillColor=#f5f5f5;autosize=0;" vertex="1" parent="ulIZNQ3s84KXibX1xzsV-1">
          <mxGeometry x="690" y="170" width="90" height="90" as="geometry" />
        </mxCell>
        <mxCell id="LUADUytyQtnepU-gGxAM-5" value="&lt;font style=&quot;font-size: 20px&quot;&gt;8.13.4.27&lt;/font&gt;" style="ellipse;whiteSpace=wrap;html=1;rounded=0;shadow=1;strokeColor=#666666;strokeWidth=1;fontSize=30;align=center;fillColor=#f5f5f5;autosize=0;" vertex="1" parent="ulIZNQ3s84KXibX1xzsV-1">
          <mxGeometry x="850" y="170" width="90" height="90" as="geometry" />
        </mxCell>
        <mxCell id="LUADUytyQtnepU-gGxAM-6" style="edgeStyle=none;curved=1;html=1;startSize=10;endFill=1;endSize=10;strokeWidth=2;fontSize=12;exitX=0.5;exitY=1;exitDx=0;exitDy=0;" edge="1" parent="ulIZNQ3s84KXibX1xzsV-1" source="LUADUytyQtnepU-gGxAM-0">
          <mxGeometry relative="1" as="geometry">
            <mxPoint x="70" y="310" as="sourcePoint" />
            <mxPoint x="255" y="260" as="targetPoint" />
            <Array as="points">
              <mxPoint x="170" y="360" />
            </Array>
          </mxGeometry>
        </mxCell>
        <mxCell id="LUADUytyQtnepU-gGxAM-7" style="edgeStyle=none;curved=1;html=1;startSize=10;endFill=1;endSize=10;strokeWidth=2;fontSize=12;entryX=0.5;entryY=1;entryDx=0;entryDy=0;exitX=0.5;exitY=1;exitDx=0;exitDy=0;" edge="1" parent="ulIZNQ3s84KXibX1xzsV-1" source="LUADUytyQtnepU-gGxAM-1" target="LUADUytyQtnepU-gGxAM-2">
          <mxGeometry relative="1" as="geometry">
            <mxPoint x="280" y="360" as="sourcePoint" />
            <mxPoint x="420" y="260" as="targetPoint" />
            <Array as="points">
              <mxPoint x="335" y="360" />
            </Array>
          </mxGeometry>
        </mxCell>
        <mxCell id="LUADUytyQtnepU-gGxAM-8" style="edgeStyle=none;curved=1;html=1;startSize=10;endFill=1;endSize=10;strokeWidth=2;fontSize=12;exitX=0.5;exitY=1;exitDx=0;exitDy=0;entryX=0.5;entryY=1;entryDx=0;entryDy=0;" edge="1" parent="ulIZNQ3s84KXibX1xzsV-1" source="LUADUytyQtnepU-gGxAM-2" target="LUADUytyQtnepU-gGxAM-3">
          <mxGeometry relative="1" as="geometry">
            <mxPoint x="419" y="269" as="sourcePoint" />
            <mxPoint x="579" y="269" as="targetPoint" />
            <Array as="points">
              <mxPoint x="494" y="369" />
            </Array>
          </mxGeometry>
        </mxCell>
        <mxCell id="LUADUytyQtnepU-gGxAM-9" style="edgeStyle=none;curved=1;html=1;startSize=10;endFill=1;endSize=10;strokeWidth=2;fontSize=12;exitX=0.5;exitY=1;exitDx=0;exitDy=0;entryX=0.5;entryY=1;entryDx=0;entryDy=0;" edge="1" parent="ulIZNQ3s84KXibX1xzsV-1" source="LUADUytyQtnepU-gGxAM-3" target="LUADUytyQtnepU-gGxAM-4">
          <mxGeometry relative="1" as="geometry">
            <mxPoint x="570" y="260" as="sourcePoint" />
            <mxPoint x="730" y="260" as="targetPoint" />
            <Array as="points">
              <mxPoint x="649" y="369" />
            </Array>
          </mxGeometry>
        </mxCell>
        <mxCell id="LUADUytyQtnepU-gGxAM-10" style="edgeStyle=none;curved=1;html=1;startSize=10;endFill=1;endSize=10;strokeWidth=2;fontSize=12;entryX=0.5;entryY=1;entryDx=0;entryDy=0;exitX=0.5;exitY=1;exitDx=0;exitDy=0;" edge="1" parent="ulIZNQ3s84KXibX1xzsV-1" source="LUADUytyQtnepU-gGxAM-4" target="LUADUytyQtnepU-gGxAM-5">
          <mxGeometry relative="1" as="geometry">
            <mxPoint x="750" y="340" as="sourcePoint" />
            <mxPoint x="900" y="260" as="targetPoint" />
            <Array as="points">
              <mxPoint x="814" y="369" />
            </Array>
          </mxGeometry>
        </mxCell>
        <mxCell id="LUADUytyQtnepU-gGxAM-11" value="&lt;font style=&quot;font-size: 20px&quot;&gt;8.13.4.28&lt;/font&gt;" style="ellipse;whiteSpace=wrap;html=1;rounded=0;shadow=1;strokeColor=#666666;strokeWidth=1;fontSize=30;align=center;fillColor=#f5f5f5;autosize=0;" vertex="1" parent="ulIZNQ3s84KXibX1xzsV-1">
          <mxGeometry x="1010" y="170" width="90" height="90" as="geometry" />
        </mxCell>
        <mxCell id="LUADUytyQtnepU-gGxAM-12" value="&lt;font style=&quot;font-size: 20px&quot;&gt;8.13.4.29&lt;/font&gt;" style="ellipse;whiteSpace=wrap;html=1;rounded=0;shadow=1;strokeColor=#666666;strokeWidth=1;fontSize=30;align=center;fillColor=#f5f5f5;autosize=0;" vertex="1" parent="ulIZNQ3s84KXibX1xzsV-1">
          <mxGeometry x="1170" y="170" width="90" height="90" as="geometry" />
        </mxCell>
        <mxCell id="LUADUytyQtnepU-gGxAM-13" value="&lt;font style=&quot;font-size: 20px&quot;&gt;8.13.4.30&lt;/font&gt;" style="ellipse;whiteSpace=wrap;html=1;rounded=0;shadow=1;strokeColor=#666666;strokeWidth=1;fontSize=30;align=center;fillColor=#f5f5f5;autosize=0;" vertex="1" parent="ulIZNQ3s84KXibX1xzsV-1">
          <mxGeometry x="1330" y="170" width="90" height="90" as="geometry" />
        </mxCell>
        <mxCell id="LUADUytyQtnepU-gGxAM-14" value="&lt;font style=&quot;font-size: 20px&quot;&gt;8.13.4.31&lt;/font&gt;" style="ellipse;whiteSpace=wrap;html=1;rounded=0;shadow=1;strokeColor=#666666;strokeWidth=1;fontSize=30;align=center;fillColor=#f5f5f5;autosize=0;" vertex="1" parent="ulIZNQ3s84KXibX1xzsV-1">
          <mxGeometry x="1490" y="170" width="90" height="90" as="geometry" />
        </mxCell>
        <mxCell id="LUADUytyQtnepU-gGxAM-15" style="edgeStyle=none;curved=1;html=1;startSize=10;endFill=1;endSize=10;strokeWidth=2;fontSize=12;exitX=0.5;exitY=1;exitDx=0;exitDy=0;entryX=0.5;entryY=1;entryDx=0;entryDy=0;" edge="1" parent="ulIZNQ3s84KXibX1xzsV-1" source="LUADUytyQtnepU-gGxAM-5" target="LUADUytyQtnepU-gGxAM-11">
          <mxGeometry relative="1" as="geometry">
            <mxPoint x="900" y="260" as="sourcePoint" />
            <mxPoint x="1060" y="260" as="targetPoint" />
            <Array as="points">
              <mxPoint x="975" y="360" />
            </Array>
          </mxGeometry>
        </mxCell>
        <mxCell id="LUADUytyQtnepU-gGxAM-16" style="edgeStyle=none;curved=1;html=1;startSize=10;endFill=1;endSize=10;strokeWidth=2;fontSize=12;entryX=0.5;entryY=1;entryDx=0;entryDy=0;exitX=0.5;exitY=1;exitDx=0;exitDy=0;" edge="1" parent="ulIZNQ3s84KXibX1xzsV-1" source="LUADUytyQtnepU-gGxAM-11" target="LUADUytyQtnepU-gGxAM-12">
          <mxGeometry relative="1" as="geometry">
            <mxPoint x="1060" y="260" as="sourcePoint" />
            <mxPoint x="1220" y="260" as="targetPoint" />
            <Array as="points">
              <mxPoint x="1140" y="360" />
            </Array>
          </mxGeometry>
        </mxCell>
        <mxCell id="LUADUytyQtnepU-gGxAM-17" style="edgeStyle=none;curved=1;html=1;startSize=10;endFill=1;endSize=10;strokeWidth=2;fontSize=12;exitX=0.5;exitY=1;exitDx=0;exitDy=0;entryX=0.5;entryY=1;entryDx=0;entryDy=0;" edge="1" parent="ulIZNQ3s84KXibX1xzsV-1" source="LUADUytyQtnepU-gGxAM-12" target="LUADUytyQtnepU-gGxAM-13">
          <mxGeometry relative="1" as="geometry">
            <mxPoint x="1210" y="330" as="sourcePoint" />
            <mxPoint x="1380" y="310" as="targetPoint" />
            <Array as="points">
              <mxPoint x="1299" y="369" />
            </Array>
          </mxGeometry>
        </mxCell>
        <mxCell id="LUADUytyQtnepU-gGxAM-18" style="edgeStyle=none;curved=1;html=1;startSize=10;endFill=1;endSize=10;strokeWidth=2;fontSize=12;exitX=0.5;exitY=1;exitDx=0;exitDy=0;entryX=0.5;entryY=1;entryDx=0;entryDy=0;" edge="1" parent="ulIZNQ3s84KXibX1xzsV-1" source="LUADUytyQtnepU-gGxAM-13" target="LUADUytyQtnepU-gGxAM-14">
          <mxGeometry relative="1" as="geometry">
            <mxPoint x="1360" y="320" as="sourcePoint" />
            <mxPoint x="1540" y="320" as="targetPoint" />
            <Array as="points">
              <mxPoint x="1454" y="369" />
            </Array>
          </mxGeometry>
        </mxCell>
        <mxCell id="LUADUytyQtnepU-gGxAM-19" value="&lt;font style=&quot;font-size: 20px&quot;&gt;8.14.0.1&lt;/font&gt;" style="ellipse;whiteSpace=wrap;html=1;rounded=0;shadow=1;strokeColor=#666666;strokeWidth=1;fontSize=30;align=center;fillColor=#f5f5f5;autosize=0;" vertex="1" parent="ulIZNQ3s84KXibX1xzsV-1">
          <mxGeometry x="52" y="471" width="90" height="90" as="geometry" />
        </mxCell>
        <mxCell id="LUADUytyQtnepU-gGxAM-20" value="&lt;font style=&quot;font-size: 20px&quot;&gt;8.14.0.2&lt;/font&gt;" style="ellipse;whiteSpace=wrap;html=1;rounded=0;shadow=1;strokeColor=#666666;strokeWidth=1;fontSize=30;align=center;fillColor=#f5f5f5;autosize=0;" vertex="1" parent="ulIZNQ3s84KXibX1xzsV-1">
          <mxGeometry x="212" y="471" width="90" height="90" as="geometry" />
        </mxCell>
        <mxCell id="LUADUytyQtnepU-gGxAM-21" value="&lt;font style=&quot;font-size: 20px&quot;&gt;8.14.0.3&lt;/font&gt;" style="ellipse;whiteSpace=wrap;html=1;rounded=0;shadow=1;strokeColor=#666666;strokeWidth=1;fontSize=30;align=center;fillColor=#f5f5f5;autosize=0;" vertex="1" parent="ulIZNQ3s84KXibX1xzsV-1">
          <mxGeometry x="372" y="471" width="90" height="90" as="geometry" />
        </mxCell>
        <mxCell id="LUADUytyQtnepU-gGxAM-22" value="&lt;font style=&quot;font-size: 20px&quot;&gt;8.14.0.4&lt;/font&gt;" style="ellipse;whiteSpace=wrap;html=1;rounded=0;shadow=1;strokeColor=#666666;strokeWidth=1;fontSize=30;align=center;fillColor=#f5f5f5;autosize=0;" vertex="1" parent="ulIZNQ3s84KXibX1xzsV-1">
          <mxGeometry x="532" y="471" width="90" height="90" as="geometry" />
        </mxCell>
        <mxCell id="LUADUytyQtnepU-gGxAM-23" value="&lt;font style=&quot;font-size: 20px&quot;&gt;8.14.0.5&lt;/font&gt;" style="ellipse;whiteSpace=wrap;html=1;rounded=0;shadow=1;strokeColor=#666666;strokeWidth=1;fontSize=30;align=center;fillColor=#f5f5f5;autosize=0;" vertex="1" parent="ulIZNQ3s84KXibX1xzsV-1">
          <mxGeometry x="692" y="471" width="90" height="90" as="geometry" />
        </mxCell>
        <mxCell id="LUADUytyQtnepU-gGxAM-24" value="&lt;font style=&quot;font-size: 20px&quot;&gt;8.14.0.6&lt;/font&gt;" style="ellipse;whiteSpace=wrap;html=1;rounded=0;shadow=1;strokeColor=#666666;strokeWidth=1;fontSize=30;align=center;fillColor=#f5f5f5;autosize=0;" vertex="1" parent="ulIZNQ3s84KXibX1xzsV-1">
          <mxGeometry x="852" y="471" width="90" height="90" as="geometry" />
        </mxCell>
        <mxCell id="LUADUytyQtnepU-gGxAM-25" style="edgeStyle=none;curved=1;html=1;startSize=10;endFill=1;endSize=10;strokeWidth=2;fontSize=12;exitX=0.5;exitY=1;exitDx=0;exitDy=0;" edge="1" parent="ulIZNQ3s84KXibX1xzsV-1" source="LUADUytyQtnepU-gGxAM-19">
          <mxGeometry relative="1" as="geometry">
            <mxPoint x="72" y="611" as="sourcePoint" />
            <mxPoint x="257" y="561" as="targetPoint" />
            <Array as="points">
              <mxPoint x="172" y="661" />
            </Array>
          </mxGeometry>
        </mxCell>
        <mxCell id="LUADUytyQtnepU-gGxAM-26" style="edgeStyle=none;curved=1;html=1;startSize=10;endFill=1;endSize=10;strokeWidth=2;fontSize=12;entryX=0.5;entryY=1;entryDx=0;entryDy=0;exitX=0.5;exitY=1;exitDx=0;exitDy=0;" edge="1" parent="ulIZNQ3s84KXibX1xzsV-1" source="LUADUytyQtnepU-gGxAM-20" target="LUADUytyQtnepU-gGxAM-21">
          <mxGeometry relative="1" as="geometry">
            <mxPoint x="282" y="661" as="sourcePoint" />
            <mxPoint x="422" y="561" as="targetPoint" />
            <Array as="points">
              <mxPoint x="337" y="661" />
            </Array>
          </mxGeometry>
        </mxCell>
        <mxCell id="LUADUytyQtnepU-gGxAM-27" style="edgeStyle=none;curved=1;html=1;startSize=10;endFill=1;endSize=10;strokeWidth=2;fontSize=12;exitX=0.5;exitY=1;exitDx=0;exitDy=0;entryX=0.5;entryY=1;entryDx=0;entryDy=0;" edge="1" parent="ulIZNQ3s84KXibX1xzsV-1" source="LUADUytyQtnepU-gGxAM-21" target="LUADUytyQtnepU-gGxAM-22">
          <mxGeometry relative="1" as="geometry">
            <mxPoint x="421" y="570" as="sourcePoint" />
            <mxPoint x="581" y="570" as="targetPoint" />
            <Array as="points">
              <mxPoint x="496" y="670" />
            </Array>
          </mxGeometry>
        </mxCell>
        <mxCell id="LUADUytyQtnepU-gGxAM-28" style="edgeStyle=none;curved=1;html=1;startSize=10;endFill=1;endSize=10;strokeWidth=2;fontSize=12;exitX=0.5;exitY=1;exitDx=0;exitDy=0;entryX=0.5;entryY=1;entryDx=0;entryDy=0;" edge="1" parent="ulIZNQ3s84KXibX1xzsV-1" source="LUADUytyQtnepU-gGxAM-22" target="LUADUytyQtnepU-gGxAM-23">
          <mxGeometry relative="1" as="geometry">
            <mxPoint x="572" y="561" as="sourcePoint" />
            <mxPoint x="732" y="561" as="targetPoint" />
            <Array as="points">
              <mxPoint x="651" y="670" />
            </Array>
          </mxGeometry>
        </mxCell>
        <mxCell id="LUADUytyQtnepU-gGxAM-29" style="edgeStyle=none;curved=1;html=1;startSize=10;endFill=1;endSize=10;strokeWidth=2;fontSize=12;entryX=0.5;entryY=1;entryDx=0;entryDy=0;exitX=0.5;exitY=1;exitDx=0;exitDy=0;" edge="1" parent="ulIZNQ3s84KXibX1xzsV-1" source="LUADUytyQtnepU-gGxAM-23" target="LUADUytyQtnepU-gGxAM-24">
          <mxGeometry relative="1" as="geometry">
            <mxPoint x="752" y="641" as="sourcePoint" />
            <mxPoint x="902" y="561" as="targetPoint" />
            <Array as="points">
              <mxPoint x="816" y="670" />
            </Array>
          </mxGeometry>
        </mxCell>
        <mxCell id="LUADUytyQtnepU-gGxAM-30" value="&lt;font style=&quot;font-size: 20px&quot;&gt;8.14.0.7&lt;/font&gt;" style="ellipse;whiteSpace=wrap;html=1;rounded=0;shadow=1;strokeColor=#666666;strokeWidth=1;fontSize=30;align=center;fillColor=#f5f5f5;autosize=0;" vertex="1" parent="ulIZNQ3s84KXibX1xzsV-1">
          <mxGeometry x="1012" y="471" width="90" height="90" as="geometry" />
        </mxCell>
        <mxCell id="LUADUytyQtnepU-gGxAM-31" style="edgeStyle=none;curved=1;html=1;startSize=10;endFill=1;endSize=10;strokeWidth=2;fontSize=12;exitX=0.5;exitY=1;exitDx=0;exitDy=0;entryX=0.5;entryY=1;entryDx=0;entryDy=0;" edge="1" parent="ulIZNQ3s84KXibX1xzsV-1" source="LUADUytyQtnepU-gGxAM-24" target="LUADUytyQtnepU-gGxAM-30">
          <mxGeometry relative="1" as="geometry">
            <mxPoint x="902" y="561" as="sourcePoint" />
            <mxPoint x="1062" y="561" as="targetPoint" />
            <Array as="points">
              <mxPoint x="977" y="661" />
            </Array>
          </mxGeometry>
        </mxCell>
        <mxCell id="LUADUytyQtnepU-gGxAM-32" style="edgeStyle=none;html=1;startSize=10;endFill=0;endSize=10;strokeWidth=2;fontSize=12;entryX=0.5;entryY=1;entryDx=0;entryDy=0;rounded=1;startArrow=classic;startFill=1;endArrow=none;strokeColor=#FF8000;" edge="1" parent="ulIZNQ3s84KXibX1xzsV-1" target="LUADUytyQtnepU-gGxAM-14">
          <mxGeometry relative="1" as="geometry">
            <mxPoint x="97" y="470" as="sourcePoint" />
            <mxPoint x="1700" y="260" as="targetPoint" />
            <Array as="points">
              <mxPoint x="97" y="369" />
              <mxPoint x="1535" y="369" />
            </Array>
          </mxGeometry>
        </mxCell>
        <mxCell id="LUADUytyQtnepU-gGxAM-33" value="&lt;font style=&quot;font-size: 20px&quot;&gt;8.15.0&lt;/font&gt;" style="ellipse;whiteSpace=wrap;html=1;rounded=0;shadow=1;strokeColor=#666666;strokeWidth=1;fontSize=30;align=center;fillColor=#f5f5f5;autosize=0;" vertex="1" parent="ulIZNQ3s84KXibX1xzsV-1">
          <mxGeometry x="52" y="730" width="90" height="90" as="geometry" />
        </mxCell>
        <mxCell id="LUADUytyQtnepU-gGxAM-34" style="edgeStyle=none;html=1;startSize=10;endFill=0;endSize=10;strokeWidth=2;fontSize=12;rounded=1;startArrow=classic;startFill=1;endArrow=none;entryX=0.5;entryY=1;entryDx=0;entryDy=0;strokeColor=#FF8000;" edge="1" parent="ulIZNQ3s84KXibX1xzsV-1" target="LUADUytyQtnepU-gGxAM-30">
          <mxGeometry relative="1" as="geometry">
            <mxPoint x="95.5" y="730" as="sourcePoint" />
            <mxPoint x="1050" y="570" as="targetPoint" />
            <Array as="points">
              <mxPoint x="96" y="650" />
              <mxPoint x="1057" y="650" />
            </Array>
          </mxGeometry>
        </mxCell>
      </root>
    </mxGraphModel>
  </diagram>
</mxfile>
